<?xml version="1.0" encoding="iso-8859-1"?>
<!-- Generator: Adobe Illustrator 19.0.0, SVG Export Plug-In . SVG Version: 6.00 Build 0)  -->
<svg xmlns="http://www.w3.org/2000/svg" xmlns:xlink="http://www.w3.org/1999/xlink" version="1.1" id="Layer_1" x="0px" y="0px" viewBox="0 0 511.241 511.241" style="enable-background:new 0 0 511.241 511.241;" xml:space="preserve" width="512" height="512">
<g>
	<g>
		<g>
			<path style="fill:#FFEECF;" d="M389.485,255.622c0,48.379-25.676,90.77-64.138,114.293     c-20.308,12.418-44.187,19.572-69.727,19.572c-23.092,0-44.818-5.841-63.77-16.137c-41.75-22.672-70.095-66.891-70.095-117.728     c0-73.93,59.936-133.865,133.865-133.865S389.485,181.692,389.485,255.622z"/>
		</g>
	</g>
	<g>
		<g>
			<path style="fill:#F5DCAA;" d="M307.187,132.056c27.621,24.523,45.032,60.291,45.032,100.13     c0,48.379-25.676,90.77-64.138,114.293c-20.308,12.418-44.187,19.572-69.727,19.572c-18.287,0-35.711-3.675-51.586-10.313     c7.632,6.779,16.041,12.702,25.082,17.612c18.953,10.296,40.679,16.137,63.77,16.137c25.54,0,49.419-7.155,69.727-19.572     c38.462-23.523,64.138-65.914,64.138-114.293C389.485,199.968,355.518,152.251,307.187,132.056z"/>
		</g>
	</g>
	<g>
		<g>
			<path style="fill:#FFCD74;" d="M310.03,203.04l-1.04,21.758c-0.021,0.473-0.221,0.914-0.557,1.25l-43.799,43.799     c4.276,12.88,1.303,27.63-8.94,37.873c-15.076,15.086-39.943,14.425-54.168-1.964c-11.924-13.741-11.977-34.49-0.105-48.274     c10.254-11.924,26.107-15.591,39.817-11.031l43.799-43.799c0.326-0.336,0.777-0.536,1.25-0.557l21.758-1.04     C309.158,201.002,310.082,201.926,310.03,203.04z"/>
		</g>
	</g>
	<g>
		<g>
			<circle style="fill:#FFEECF;" cx="223.435" cy="287.569" r="7.879"/>
		</g>
	</g>
</g>
<g>
	<path d="M9.088,71.719c4.142,0,7.5-3.357,7.5-7.5V10.827c0-4.143-3.358-7.5-7.5-7.5s-7.5,3.357-7.5,7.5v53.392   C1.588,68.362,4.945,71.719,9.088,71.719z"/>
	<path d="M102.191,71.719c4.142,0,7.5-3.357,7.5-7.5V10.827c0-4.143-3.358-7.5-7.5-7.5s-7.5,3.357-7.5,7.5v53.392   C94.691,68.362,98.049,71.719,102.191,71.719z"/>
	<path d="M55.189,71.719h0.901c12.391,0,22.471-10.08,22.471-22.471V22.473c0-12.391-10.081-22.471-22.471-22.471h-0.901   c-12.391,0-22.471,10.08-22.471,22.471v26.775C32.718,61.639,42.798,71.719,55.189,71.719z M47.718,22.473   c0-4.119,3.352-7.471,7.471-7.471h0.901c4.12,0,7.471,3.352,7.471,7.471v26.775c0,4.119-3.352,7.471-7.471,7.471h-0.901   c-4.119,0-7.471-3.352-7.471-7.471V22.473z"/>
	<path d="M148.292,71.719h0.902c12.391,0,22.471-10.08,22.471-22.471V22.473c0-12.391-10.08-22.471-22.471-22.471h-0.902   c-12.39,0-22.471,10.08-22.471,22.471v26.775C125.821,61.639,135.902,71.719,148.292,71.719z M140.821,22.473   c0-4.119,3.352-7.471,7.471-7.471h0.902c4.119,0,7.471,3.352,7.471,7.471v26.775c0,4.119-3.352,7.471-7.471,7.471h-0.902   c-4.119,0-7.471-3.352-7.471-7.471V22.473z"/>
	<path d="M210.265,71.719h0.901c12.39,0,22.471-10.08,22.471-22.471V22.473c0-12.391-10.081-22.471-22.471-22.471h-0.901   c-12.391,0-22.471,10.08-22.471,22.471v26.775C187.794,61.639,197.875,71.719,210.265,71.719z M202.794,22.473   c0-4.119,3.352-7.471,7.471-7.471h0.901c4.119,0,7.471,3.352,7.471,7.471v26.775c0,4.119-3.352,7.471-7.471,7.471h-0.901   c-4.12,0-7.471-3.352-7.471-7.471V22.473z"/>
	<path d="M71.564,89.963c-4.142,0-7.5,3.357-7.5,7.5v53.392c0,4.143,3.358,7.5,7.5,7.5s7.5-3.357,7.5-7.5V97.463   C79.064,93.321,75.706,89.963,71.564,89.963z"/>
	<path d="M9.088,245.904c4.142,0,7.5-3.357,7.5-7.5v-53.393c0-4.143-3.358-7.5-7.5-7.5s-7.5,3.357-7.5,7.5v53.393   C1.588,242.546,4.945,245.904,9.088,245.904z"/>
	<path d="M32.184,185.011v53.393c0,4.143,3.358,7.5,7.5,7.5s7.5-3.357,7.5-7.5v-53.393c0-4.143-3.358-7.5-7.5-7.5   S32.184,180.868,32.184,185.011z"/>
	<path d="M70.281,245.904c4.142,0,7.5-3.357,7.5-7.5v-53.393c0-4.143-3.358-7.5-7.5-7.5s-7.5,3.357-7.5,7.5v53.393   C62.781,242.546,66.139,245.904,70.281,245.904z"/>
	<path d="M2.091,109.109v26.775c0,12.391,10.08,22.471,22.471,22.471h0.902c12.39,0,22.471-10.08,22.471-22.471v-26.775   c0-12.391-10.081-22.471-22.471-22.471h-0.902C12.171,86.638,2.091,96.718,2.091,109.109z M17.091,109.109   c0-4.119,3.352-7.471,7.471-7.471h0.902c4.119,0,7.471,3.352,7.471,7.471v26.775c0,4.119-3.352,7.471-7.471,7.471h-0.902   c-4.119,0-7.471-3.352-7.471-7.471V109.109z"/>
	<path d="M95.194,109.109v26.775c0,12.391,10.081,22.471,22.471,22.471h0.901c12.391,0,22.471-10.08,22.471-22.471v-26.775   c0-12.391-10.08-22.471-22.471-22.471h-0.901C105.275,86.638,95.194,96.718,95.194,109.109z M110.194,109.109   c0-4.119,3.352-7.471,7.471-7.471h0.901c4.119,0,7.471,3.352,7.471,7.471v26.775c0,4.119-3.352,7.471-7.471,7.471h-0.901   c-4.12,0-7.471-3.352-7.471-7.471V109.109z"/>
	<path d="M9.088,333.202c4.142,0,7.5-3.357,7.5-7.5V272.31c0-4.143-3.358-7.5-7.5-7.5s-7.5,3.357-7.5,7.5v53.393   C1.588,329.845,4.945,333.202,9.088,333.202z"/>
	<path d="M102.191,333.202c4.142,0,7.5-3.357,7.5-7.5V272.31c0-4.143-3.358-7.5-7.5-7.5s-7.5,3.357-7.5,7.5v53.393   C94.691,329.845,98.049,333.202,102.191,333.202z"/>
	<path d="M78.561,310.732v-26.775c0-12.391-10.081-22.471-22.471-22.471h-0.901c-12.391,0-22.471,10.08-22.471,22.471v26.775   c0,12.391,10.08,22.471,22.471,22.471h0.901C68.481,333.202,78.561,323.122,78.561,310.732z M63.561,310.732   c0,4.119-3.352,7.471-7.471,7.471h-0.901c-4.119,0-7.471-3.352-7.471-7.471v-26.775c0-4.119,3.352-7.471,7.471-7.471h0.901   c4.12,0,7.471,3.352,7.471,7.471V310.732z"/>
	<path d="M71.564,351.446c-4.142,0-7.5,3.357-7.5,7.5v53.393c0,4.143,3.358,7.5,7.5,7.5s7.5-3.357,7.5-7.5v-53.393   C79.064,354.803,75.706,351.446,71.564,351.446z"/>
	<path d="M9.088,438.994c-4.142,0-7.5,3.357-7.5,7.5v53.393c0,4.143,3.358,7.5,7.5,7.5s7.5-3.357,7.5-7.5v-53.393   C16.588,442.352,13.23,438.994,9.088,438.994z"/>
	<path d="M39.684,438.994c-4.142,0-7.5,3.357-7.5,7.5v53.393c0,4.143,3.358,7.5,7.5,7.5s7.5-3.357,7.5-7.5v-53.393   C47.184,442.352,43.826,438.994,39.684,438.994z"/>
	<path d="M70.281,438.994c-4.142,0-7.5,3.357-7.5,7.5v53.393c0,4.143,3.358,7.5,7.5,7.5s7.5-3.357,7.5-7.5v-53.393   C77.781,442.352,74.423,438.994,70.281,438.994z"/>
	<path d="M164.668,438.994c-4.142,0-7.5,3.357-7.5,7.5v53.393c0,4.143,3.358,7.5,7.5,7.5s7.5-3.357,7.5-7.5v-53.393   C172.168,442.352,168.81,438.994,164.668,438.994z"/>
	<path d="M25.464,348.121h-0.902c-12.391,0-22.471,10.08-22.471,22.471v26.775c0,12.391,10.08,22.471,22.471,22.471h0.902   c12.39,0,22.471-10.08,22.471-22.471v-26.775C47.934,358.201,37.854,348.121,25.464,348.121z M32.934,397.367   c0,4.119-3.352,7.471-7.471,7.471h-0.902c-4.119,0-7.471-3.352-7.471-7.471v-26.775c0-4.119,3.352-7.471,7.471-7.471h0.902   c4.119,0,7.471,3.352,7.471,7.471V397.367z"/>
	<path d="M118.567,437.332h-0.901c-12.391,0-22.471,10.08-22.471,22.471v26.775c0,12.391,10.081,22.471,22.471,22.471h0.901   c12.391,0,22.471-10.08,22.471-22.471v-26.775C141.037,447.412,130.957,437.332,118.567,437.332z M126.037,486.578   c0,4.119-3.352,7.471-7.471,7.471h-0.901c-4.12,0-7.471-3.352-7.471-7.471v-26.775c0-4.119,3.352-7.471,7.471-7.471h0.901   c4.119,0,7.471,3.352,7.471,7.471V486.578z"/>
	<path d="M211.262,437.332h-0.901c-12.391,0-22.471,10.08-22.471,22.471v26.775c0,12.391,10.081,22.471,22.471,22.471h0.901   c12.391,0,22.471-10.08,22.471-22.471v-26.775C233.733,447.412,223.652,437.332,211.262,437.332z M218.733,486.578   c0,4.119-3.352,7.471-7.471,7.471h-0.901c-4.12,0-7.471-3.352-7.471-7.471v-26.775c0-4.119,3.352-7.471,7.471-7.471h0.901   c4.119,0,7.471,3.352,7.471,7.471V486.578z"/>
	<path d="M118.567,348.121h-0.901c-12.391,0-22.471,10.08-22.471,22.471v26.775c0,12.391,10.081,22.471,22.471,22.471h0.901   c12.391,0,22.471-10.08,22.471-22.471v-26.775C141.037,358.201,130.957,348.121,118.567,348.121z M126.037,397.367   c0,4.119-3.352,7.471-7.471,7.471h-0.901c-4.12,0-7.471-3.352-7.471-7.471v-26.775c0-4.119,3.352-7.471,7.471-7.471h0.901   c4.119,0,7.471,3.352,7.471,7.471V397.367z"/>
	<path d="M284.773,70.814c1.136,0.615,2.359,0.906,3.565,0.906c2.664,0,5.244-1.422,6.602-3.929l8.766-16.184l8.766,16.184   c1.358,2.507,3.938,3.929,6.602,3.929c1.206,0,2.43-0.291,3.565-0.906c3.642-1.973,4.995-6.524,3.022-10.167l-13.426-24.786   l13.426-24.786c1.973-3.643,0.62-8.194-3.022-10.167c-3.643-1.973-8.194-0.619-10.167,3.022l-8.766,16.184L294.94,3.93   c-1.973-3.642-6.524-4.997-10.167-3.022c-3.642,1.973-4.995,6.524-3.022,10.167l13.426,24.786L281.75,60.647   C279.777,64.289,281.131,68.841,284.773,70.814z"/>
	<path d="M345.801,70.814c1.136,0.615,2.359,0.906,3.565,0.906c2.664,0,5.244-1.422,6.602-3.929l8.766-16.184l8.766,16.184   c1.358,2.507,3.938,3.929,6.602,3.929c1.206,0,2.43-0.291,3.565-0.906c3.642-1.973,4.995-6.524,3.022-10.167l-13.426-24.786   l13.426-24.786c1.973-3.643,0.62-8.194-3.022-10.167c-3.643-1.973-8.194-0.619-10.167,3.022l-8.766,16.184L355.968,3.93   c-1.973-3.642-6.524-4.997-10.167-3.022c-3.642,1.973-4.995,6.524-3.022,10.167l13.426,24.786l-13.426,24.786   C340.806,64.289,342.159,68.841,345.801,70.814z"/>
	<path d="M444.696,0.907c-3.644-1.973-8.194-0.619-10.167,3.022l-8.766,16.184L416.997,3.93c-1.973-3.642-6.524-4.997-10.167-3.022   c-3.642,1.973-4.995,6.524-3.022,10.167l13.426,24.786l-13.426,24.786c-1.973,3.643-0.62,8.194,3.022,10.167   c1.136,0.615,2.359,0.906,3.565,0.906c2.664,0,5.244-1.422,6.602-3.929l8.766-16.184l8.766,16.184   c1.358,2.507,3.938,3.929,6.602,3.929c1.206,0,2.43-0.291,3.565-0.906c3.642-1.973,4.995-6.524,3.022-10.167l-13.426-24.786   l13.426-24.786C449.691,7.432,448.338,2.88,444.696,0.907z"/>
	<path d="M495.321,35.861l13.426-24.786c1.973-3.643,0.62-8.194-3.022-10.167c-3.644-1.973-8.194-0.619-10.167,3.022l-8.766,16.184   L478.025,3.93c-1.973-3.642-6.525-4.997-10.167-3.022c-3.642,1.973-4.995,6.524-3.022,10.167l13.426,24.786l-13.426,24.786   c-1.973,3.643-0.62,8.194,3.022,10.167c1.136,0.615,2.359,0.906,3.565,0.906c2.664,0,5.244-1.422,6.602-3.929l8.766-16.184   l8.766,16.184c1.358,2.507,3.938,3.929,6.602,3.929c1.206,0,2.43-0.291,3.565-0.906c3.642-1.973,4.995-6.524,3.022-10.167   L495.321,35.861z"/>
	<path d="M444.696,90.868c-3.644-1.974-8.194-0.619-10.167,3.022l-8.766,16.184l-8.766-16.184   c-1.973-3.643-6.524-4.998-10.167-3.022c-3.642,1.973-4.995,6.524-3.022,10.167l13.426,24.786l-13.426,24.786   c-1.973,3.643-0.62,8.194,3.022,10.167c1.136,0.615,2.359,0.906,3.565,0.906c2.664,0,5.244-1.422,6.602-3.929l8.766-16.184   l8.766,16.184c1.358,2.507,3.938,3.929,6.602,3.929c1.206,0,2.43-0.291,3.565-0.906c3.642-1.973,4.995-6.524,3.022-10.167   l-13.426-24.786l13.426-24.786C449.691,97.393,448.338,92.841,444.696,90.868z"/>
	<path d="M505.725,90.868c-3.644-1.974-8.194-0.619-10.167,3.022l-8.766,16.184l-8.766-16.184   c-1.973-3.643-6.525-4.998-10.167-3.022c-3.642,1.973-4.995,6.524-3.022,10.167l13.426,24.786l-13.426,24.786   c-1.973,3.643-0.62,8.194,3.022,10.167c1.136,0.615,2.359,0.906,3.565,0.906c2.664,0,5.244-1.422,6.602-3.929l8.766-16.184   l8.766,16.184c1.358,2.507,3.938,3.929,6.602,3.929c1.206,0,2.43-0.291,3.565-0.906c3.642-1.973,4.995-6.524,3.022-10.167   l-13.426-24.786l13.426-24.786C510.72,97.393,509.367,92.841,505.725,90.868z"/>
	<path d="M444.696,176.754c-3.644-1.975-8.194-0.62-10.167,3.022l-8.766,16.184l-8.766-16.184   c-1.973-3.643-6.524-4.998-10.167-3.022c-3.642,1.973-4.995,6.524-3.022,10.167l13.426,24.786l-13.426,24.786   c-1.973,3.643-0.62,8.194,3.022,10.167c1.136,0.615,2.359,0.906,3.565,0.906c2.664,0,5.244-1.422,6.602-3.929l8.766-16.184   l8.766,16.184c1.358,2.507,3.938,3.929,6.602,3.929c1.206,0,2.43-0.291,3.565-0.906c3.642-1.973,4.995-6.524,3.022-10.167   l-13.426-24.786l13.426-24.786C449.691,183.279,448.338,178.727,444.696,176.754z"/>
	<path d="M505.725,176.754c-3.644-1.975-8.194-0.62-10.167,3.022l-8.766,16.184l-8.766-16.184   c-1.973-3.643-6.525-4.998-10.167-3.022c-3.642,1.973-4.995,6.524-3.022,10.167l13.426,24.786l-13.426,24.786   c-1.973,3.643-0.62,8.194,3.022,10.167c1.136,0.615,2.359,0.906,3.565,0.906c2.664,0,5.244-1.422,6.602-3.929l8.766-16.184   l8.766,16.184c1.358,2.507,3.938,3.929,6.602,3.929c1.206,0,2.43-0.291,3.565-0.906c3.642-1.973,4.995-6.524,3.022-10.167   l-13.426-24.786l13.426-24.786C510.72,183.279,509.367,178.727,505.725,176.754z"/>
	<path d="M444.696,262.391c-3.644-1.974-8.194-0.619-10.167,3.022l-8.766,16.184l-8.766-16.184   c-1.973-3.643-6.524-4.997-10.167-3.022c-3.642,1.973-4.995,6.524-3.022,10.167l13.426,24.786l-13.426,24.786   c-1.973,3.643-0.62,8.194,3.022,10.167c1.136,0.615,2.359,0.906,3.565,0.906c2.664,0,5.244-1.422,6.602-3.929l8.766-16.184   l8.766,16.184c1.358,2.507,3.938,3.929,6.602,3.929c1.206,0,2.43-0.291,3.565-0.906c3.642-1.973,4.995-6.524,3.022-10.167   l-13.426-24.786l13.426-24.786C449.691,268.915,448.338,264.363,444.696,262.391z"/>
	<path d="M505.725,262.391c-3.644-1.974-8.194-0.619-10.167,3.022l-8.766,16.184l-8.766-16.184   c-1.973-3.643-6.525-4.997-10.167-3.022c-3.642,1.973-4.995,6.524-3.022,10.167l13.426,24.786l-13.426,24.786   c-1.973,3.643-0.62,8.194,3.022,10.167c1.136,0.615,2.359,0.906,3.565,0.906c2.664,0,5.244-1.422,6.602-3.929l8.766-16.184   l8.766,16.184c1.358,2.507,3.938,3.929,6.602,3.929c1.206,0,2.43-0.291,3.565-0.906c3.642-1.973,4.995-6.524,3.022-10.167   l-13.426-24.786l13.426-24.786C510.72,268.915,509.367,264.363,505.725,262.391z"/>
	<path d="M444.696,352.351c-3.644-1.973-8.194-0.62-10.167,3.022l-8.766,16.184l-8.766-16.184   c-1.973-3.643-6.524-4.998-10.167-3.022c-3.642,1.973-4.995,6.524-3.022,10.167l13.426,24.787l-13.426,24.787   c-1.973,3.643-0.62,8.194,3.022,10.167c1.136,0.615,2.359,0.906,3.565,0.906c2.664,0,5.244-1.422,6.602-3.929l8.766-16.184   l8.766,16.184c1.358,2.507,3.938,3.929,6.602,3.929c1.206,0,2.43-0.291,3.565-0.906c3.642-1.973,4.995-6.524,3.022-10.167   l-13.426-24.787l13.426-24.787C449.691,358.875,448.338,354.323,444.696,352.351z"/>
	<path d="M505.725,352.351c-3.644-1.973-8.194-0.62-10.167,3.022l-8.766,16.184l-8.766-16.184   c-1.973-3.643-6.525-4.998-10.167-3.022c-3.642,1.973-4.995,6.524-3.022,10.167l13.426,24.787l-13.426,24.787   c-1.973,3.643-0.62,8.194,3.022,10.167c1.136,0.615,2.359,0.906,3.565,0.906c2.664,0,5.244-1.422,6.602-3.929l8.766-16.184   l8.766,16.184c1.358,2.507,3.938,3.929,6.602,3.929c1.206,0,2.43-0.291,3.565-0.906c3.642-1.973,4.995-6.524,3.022-10.167   l-13.426-24.787l13.426-24.787C510.72,358.875,509.367,354.323,505.725,352.351z"/>
	<path d="M322.639,438.238c-3.643-1.974-8.194-0.62-10.167,3.022l-8.766,16.184l-8.766-16.184   c-1.973-3.643-6.524-4.998-10.167-3.022c-3.642,1.973-4.995,6.524-3.022,10.167l13.426,24.786l-13.426,24.786   c-1.973,3.643-0.62,8.194,3.022,10.167c1.136,0.615,2.359,0.906,3.565,0.906c2.664,0,5.244-1.422,6.602-3.929l8.766-16.184   l8.766,16.184c1.358,2.507,3.938,3.929,6.602,3.929c1.206,0,2.43-0.291,3.565-0.906c3.642-1.973,4.995-6.524,3.022-10.167   l-13.426-24.786l13.426-24.786C327.634,444.762,326.281,440.21,322.639,438.238z"/>
	<path d="M383.668,438.238c-3.643-1.974-8.194-0.62-10.167,3.022l-8.766,16.184l-8.766-16.184   c-1.973-3.643-6.524-4.998-10.167-3.022c-3.642,1.973-4.995,6.524-3.022,10.167l13.426,24.786l-13.426,24.786   c-1.973,3.643-0.62,8.194,3.022,10.167c1.136,0.615,2.359,0.906,3.565,0.906c2.664,0,5.244-1.422,6.602-3.929l8.766-16.184   l8.766,16.184c1.358,2.507,3.938,3.929,6.602,3.929c1.206,0,2.43-0.291,3.565-0.906c3.642-1.973,4.995-6.524,3.022-10.167   l-13.426-24.786l13.426-24.786C388.663,444.762,387.31,440.21,383.668,438.238z"/>
	<path d="M444.696,438.238c-3.644-1.974-8.194-0.62-10.167,3.022l-8.766,16.184l-8.766-16.184   c-1.973-3.643-6.524-4.998-10.167-3.022c-3.642,1.973-4.995,6.524-3.022,10.167l13.426,24.786l-13.426,24.786   c-1.973,3.643-0.62,8.194,3.022,10.167c1.136,0.615,2.359,0.906,3.565,0.906c2.664,0,5.244-1.422,6.602-3.929l8.766-16.184   l8.766,16.184c1.358,2.507,3.938,3.929,6.602,3.929c1.206,0,2.43-0.291,3.565-0.906c3.642-1.973,4.995-6.524,3.022-10.167   l-13.426-24.786l13.426-24.786C449.691,444.762,448.338,440.21,444.696,438.238z"/>
	<path d="M505.725,438.238c-3.644-1.974-8.194-0.62-10.167,3.022l-8.766,16.184l-8.766-16.184   c-1.973-3.643-6.525-4.998-10.167-3.022c-3.642,1.973-4.995,6.524-3.022,10.167l13.426,24.786l-13.426,24.786   c-1.973,3.643-0.62,8.194,3.022,10.167c1.136,0.615,2.359,0.906,3.565,0.906c2.664,0,5.244-1.422,6.602-3.929l8.766-16.184   l8.766,16.184c1.358,2.507,3.938,3.929,6.602,3.929c1.206,0,2.43-0.291,3.565-0.906c3.642-1.973,4.995-6.524,3.022-10.167   l-13.426-24.786l13.426-24.786C510.72,444.762,509.367,440.21,505.725,438.238z"/>
	<path d="M382.863,193.989l3.825-7.07c1.971-3.643,0.615-8.194-3.028-10.165c-3.254-1.758-7.226-0.861-9.443,1.946   c-5.138-7.892-11.069-15.281-17.667-22.019l8.186-15.112l8.766,16.184c1.358,2.507,3.938,3.929,6.602,3.929   c1.206,0,2.43-0.291,3.565-0.906c3.642-1.973,4.995-6.524,3.022-10.167l-13.426-24.786l13.426-24.786   c1.973-3.643,0.62-8.194-3.022-10.167c-3.643-1.974-8.194-0.619-10.167,3.022l-8.766,16.184l-8.766-16.184   c-1.973-3.643-6.524-4.998-10.167-3.022c-3.642,1.973-4.995,6.524-3.022,10.167l13.426,24.786l-11.057,20.413   c-1.738-1.426-3.501-2.819-5.304-4.159c-3.325-2.469-8.023-1.776-10.493,1.548c-2.47,3.325-1.777,8.022,1.548,10.493   c15.46,11.486,27.772,25.895,36.437,42.196c0.24,0.69,0.58,1.344,1.013,1.942c8.882,17.444,13.637,36.971,13.637,57.366   c0,20.013-4.619,39.197-13.153,56.364c-0.416,0.597-0.739,1.248-0.966,1.932c-10.414,20.07-26.26,37.261-46.432,49.598   c-19.761,12.084-42.52,18.471-65.815,18.471c-21.039,0-41.853-5.266-60.191-15.228c-7.252-3.938-14.006-8.532-20.227-13.667   c-0.002-0.001-0.004-0.003-0.005-0.004c-28.787-23.763-45.942-59.324-45.942-97.467c0-69.678,56.687-126.365,126.365-126.365   c16.825,0,33.116,3.24,48.474,9.632c0.036,0.015,0.072,0.031,0.108,0.046c0.929,0.388,1.857,0.784,2.779,1.195   c3.784,1.684,8.217-0.017,9.903-3.8c1.686-3.784-0.016-8.218-3.799-9.903c-0.226-0.101-0.455-0.194-0.682-0.293l-0.167-0.307   l13.43-24.793c1.973-3.643,0.619-8.194-3.023-10.167c-3.644-1.976-8.194-0.62-10.167,3.022l-8.77,16.191l-8.771-16.192   c-1.973-3.643-6.526-4.995-10.167-3.021c-3.642,1.974-4.994,6.525-3.02,10.167l9.633,17.783c-8.78-2.292-17.773-3.721-26.926-4.281   V7.502c0-4.143-3.358-7.5-7.5-7.5c-4.142,0-7.5,3.357-7.5,7.5v106.896c-5.684,0.245-11.28,0.828-16.772,1.728V97.463   c0-4.143-3.358-7.5-7.5-7.5s-7.5,3.357-7.5,7.5v21.97c-5.008,1.397-9.903,3.063-14.671,4.982v-15.305   c0-12.391-10.08-22.471-22.47-22.471h-0.9c-12.39,0-22.47,10.08-22.47,22.471v26.77c0,5.174,1.763,10.041,4.825,13.922   c-10.692,9.47-19.947,20.527-27.384,32.805c-4.081-4.165-9.763-6.756-16.041-6.756h-0.91c-12.39,0-22.47,10.08-22.47,22.47v26.77   c0,11.323,8.413,20.713,19.313,22.254c-0.159,2.74-0.249,5.498-0.249,8.277c0,19.641,4.07,38.669,11.597,56.083   c0.282,6.581,3.41,12.645,8.566,16.683c6.935,11.55,15.526,22.106,25.55,31.319c-1.816,3.28-2.796,7.004-2.796,10.883v26.78   c0,12.39,10.08,22.47,22.47,22.47h0.9c12.39,0,22.47-10.08,22.47-22.47v-10.525c4.794,1.918,9.692,3.572,14.671,4.954v20.538   c0,4.143,3.358,7.5,7.5,7.5s7.5-3.357,7.5-7.5v-17.236c5.541,0.909,11.143,1.487,16.772,1.733v106.906c0,4.143,3.358,7.5,7.5,7.5   c4.142,0,7.5-3.357,7.5-7.5V396.699c9.552-0.594,18.979-2.154,28.146-4.632l-10.853,20.019c-1.974,3.641-0.623,8.193,3.019,10.168   c1.136,0.615,2.36,0.907,3.568,0.907c2.663,0,5.242-1.421,6.6-3.927l8.774-16.184l8.768,16.183   c1.358,2.506,3.937,3.928,6.601,3.928c1.207,0,2.431-0.292,3.566-0.906c3.642-1.974,4.995-6.525,3.021-10.168l-13.428-24.781   l1.529-2.823c5.312-2.397,10.492-5.112,15.494-8.17c5.299-3.241,10.365-6.833,15.178-10.729l11.766,21.721l-13.426,24.787   c-1.973,3.643-0.62,8.194,3.022,10.167c1.136,0.615,2.359,0.906,3.565,0.906c2.664,0,5.244-1.422,6.602-3.929l8.766-16.184   l8.766,16.184c1.358,2.507,3.938,3.929,6.602,3.929c1.206,0,2.43-0.291,3.565-0.906c3.642-1.973,4.995-6.524,3.022-10.167   l-13.426-24.787l13.426-24.787c1.973-3.643,0.62-8.194-3.022-10.167c-3.643-1.973-8.194-0.62-10.167,3.022l-8.766,16.184   l-8.766-16.184c-0.026-0.047-0.056-0.09-0.083-0.136c7.226-7.274,13.664-15.324,19.17-23.999c1.388,1.262,3.19,1.963,5.042,1.963   c1.207,0,2.431-0.292,3.567-0.907c3.642-1.974,4.994-6.525,3.02-10.167l-3.276-6.044c8.897-18.807,13.576-39.494,13.576-60.462   C396.986,234.294,392.105,213.06,382.863,193.989z M172.171,135.88v-26.77c0-4.119,3.351-7.471,7.47-7.471h0.9   c4.119,0,7.47,3.352,7.47,7.471v22.39c-4.942,2.703-9.707,5.69-14.27,8.943C172.753,139.163,172.171,137.577,172.171,135.88z    M110.191,225.09v-26.77c0-4.119,3.351-7.47,7.47-7.47h0.91c4.119,0,7.47,3.351,7.47,7.47v0.823   c-4.592,10.494-7.943,21.647-9.872,33.277C112.762,231.726,110.191,228.704,110.191,225.09z M180.541,404.84h-0.9   c-4.119,0-7.47-3.351-7.47-7.47v-26.78c0-0.274,0.017-0.546,0.046-0.815c4.997,3.653,10.269,7.003,15.794,10.019v17.577   C188.011,401.489,184.66,404.84,180.541,404.84z"/>
	<circle cx="223.435" cy="287.569" r="7.879"/>
	<path d="M290.813,254.277c0.003-0.002,0.005-0.005,0.007-0.008l22.916-22.916c1.657-1.657,2.63-3.858,2.742-6.196l1.042-21.757   c0.127-2.64-0.872-5.226-2.742-7.095c-1.869-1.87-4.46-2.877-7.095-2.742l-21.756,1.041c-2.34,0.111-4.541,1.085-6.198,2.741   l-40.723,40.724c-15.892-3.477-32.464,1.957-43.274,14.518c-14.273,16.586-14.219,41.556,0.125,58.084   c8.483,9.773,20.742,15.384,33.634,15.394c0.002,0,0.004,0,0.006,0c4.14,0,7.497-3.354,7.5-7.494   c0.003-4.143-3.352-7.503-7.494-7.506c-8.548-0.007-16.682-3.733-22.317-10.226c-9.5-10.946-9.536-27.483-0.084-38.467   c7.873-9.149,20.342-12.605,31.764-8.806c2.693,0.895,5.662,0.192,7.67-1.813l42.269-42.27l13.437-0.643l-0.643,13.437   l-1.281,1.281c-2.947-2.43-7.313-2.27-10.069,0.487c-2.756,2.756-2.916,7.122-0.486,10.068l-4.279,4.279   c-2.946-2.43-7.313-2.27-10.069,0.485c-2.756,2.757-2.917,7.123-0.486,10.07l-15.599,15.598c-2.007,2.008-2.709,4.977-1.813,7.67   c3.553,10.685,0.823,22.259-7.125,30.205c-2.929,2.929-2.929,7.678,0,10.606c2.929,2.93,7.678,2.929,10.606,0.001   c10.856-10.855,15.259-26.193,12.017-40.954l17.79-17.79C290.808,254.281,290.811,254.279,290.813,254.277z"/>
</g>















</svg>
